<svg xmlns="http://www.w3.org/2000/svg" viewBox="0 0 272.2 107.19"><defs><style>.cls-1{fill:#50d19f;}.cls-2{fill:#e26969;}.cls-3{fill:#ed8b8b;}.cls-4{fill:#f99a9a;}.cls-5{fill:#f77b7b;}.cls-6{fill:#f76f6f;}.cls-7{fill:#f78383;}.cls-8{fill:#ef6969;}.cls-9{fill:#ff8282;}.cls-10{fill:#ff9d9d;}.cls-11{fill:#fff;}</style></defs><title>Asset 2</title><g id="Layer_2" data-name="Layer 2"><g id="header"><g id="logo"><path class="cls-1" d="M107.8,18.07c-9.56,6.33-24.19,12.82-39.56,7.85a32.34,32.34,0,0,1-8.15-4l-.29.22a75.72,75.72,0,0,0,8,5.22c7.61,4,21.07,5,46.61-10.22Z"/><path class="cls-1" d="M237.36,74.57c-4.63,3.24-11.44,7.8-20,12.81-7.14,4.18-12.42,7.28-16.87,9-10.72,4.21-17.49,1.83-42.24-3.73-17.27-3.88-35.14-7.89-58.88-3.49a102.53,102.53,0,0,0-15.45,4.08A120.49,120.49,0,0,0,68.66,100c-8.21,4.33-10,6.49-14.75,6.87a20.63,20.63,0,0,1-10.57-2.28C33.82,100.19-2.3,76.82,1.89,41.86a62.14,62.14,0,0,1,11-27.76c6-8.19,12.86-12.78,19-12.56,5.42.19,9.27,3.67,13.31,8.1.28-.42.56-.88.89-1.3C41.87,3.78,37.81.21,31.9,0h-.48C17,0,2.66,22.6.37,41.68-1.27,55.31,2.61,69.74,11.28,82.31c8.23,12,19.78,20.61,31.67,23.75A31.88,31.88,0,0,0,51,107.19c6.67,0,11.84-2.59,18.32-5.84,7.1-3.56,15.94-8,30.31-10.66,23.43-4.35,41.14-.37,58.26,3.48,25,5.61,31.11,6.44,42.5,3.81,1.89-.44,7.45-2.12,18.49-5.48,10.53-3.2,19.19-5.86,25.11-7.69Z"/><g id="Layer_2-2" data-name="Layer 2"><path class="cls-2" d="M250.08,61c.38-.55,3.48-1.23,9.67-2.58.4-.08,1.42-.29,1.78.18s-.65,1.79-.18,2.57,1.55.1,2.58.71c1.68,1,.35,3.69,2.12,5.77,1.37,1.6,3.32,1.38,3.47,2.58s-1.4,2-1.07,2.57,1.16,0,1.69.44c.92.84-.9,3.15.09,4.71.61,1,1.75.73,1.95,1.42.31,1.1-2.21,3.22-4.08,3.72C260.63,85.05,246.68,65.86,250.08,61Z"/><path class="cls-2" d="M237.3,49.43c.24-.47,1.47-.12,3.11-1.24S242,46,243,45.88c1.33-.11,1.64,2.11,3.64,2.49,1.33.25,2.07-.56,2.84,0s.21,1.28.8,2.21c1.17,1.87,4.48,1,5.15,2.67.21.55.06,1.16.62,1.68s.79.33,1,.54c.39.43-.24,2-3.55,6C239.85,53.1,236.9,50.26,237.3,49.43Z"/><path class="cls-3" d="M219.91,77.56c-.28,1,1.51,2.4,1.51,6,0,2.73-1.06,4.57,0,5.67.86.9,2.27.43,2.66,1.34s-.83,1.76-.44,2.57,1.68.27,3.1,1C229,95.16,228.9,97.94,230,98c1.36,0,2.07-4,3.46-3.9.92.05,1.06,1.88,2.39,2.13,1,.18,1.27-.71,2.58-.8,1.54-.11,2,1.06,3.37,1.15s2.26-1.13,4-2.4c1.11-.8,4.09-3,6.75-2.57s3.39,2.86,8.6,6.48c.48.33,1.36.92,2.05.62.91-.4.54-2,1.33-3.73.94-2.1,2.56-2.29,3.63-3.64s1.69-3.92-.53-9.49C230.11,75.09,220.5,75.47,219.91,77.56Z"/><path class="cls-4" d="M235.62,81.64c-.62,1.53-.41,3.45,0,7.28.2,1.89.49,3.08,1.33,3.46s1.37-.25,2.75,0c1.13.21,1.33.72,2.22,1.06,2.33.91,3.64-1.63,5.94-1.06,2,.49,2.18,2.66,5,3.28.84.19,1.13.06,1.25,0,1.3-.7,0-3.6,1.42-5.06,1-1,2.24-.2,3.81-1.06,1.16-.64,2.2-2,2.66-4.88-.71-1.15-4.59-7.16-11.89-8.34C244.75,75.46,237.43,77.15,235.62,81.64Z"/><path class="cls-5" d="M217.07,64.87c-.64-.48-2.22-2-1.95-3.55s1.93-1.73,2.13-3.46c.13-1.12-.51-1.61-.09-2.39s1.39-.57,1.86-1.42c.59-1-.34-2.37.27-2.84.31-.24.68,0,.89-.27.35-.45-.51-1.4-.27-1.69s2.1,1.45,4.17,1.33c1.92-.1,2-1.77,4.08-2.12,2.24-.39,3.21,1.38,5.42,1.06A5.61,5.61,0,0,0,237,47.21a6.7,6.7,0,0,1,2.66,4.26C240.52,59.12,222.2,68.73,217.07,64.87Z"/><path class="cls-5" d="M235.09,81a15.2,15.2,0,0,0-1.87,7.1,13.71,13.71,0,0,0,.18,2.13c-.8-.9-2-1.93-3.28-1.77a3.74,3.74,0,0,0-1.16.44c-1,.37-3.13-1.06-7.89-8.61a7.58,7.58,0,0,0-.89-.26,17.32,17.32,0,0,0-2.31-.27c-.65-.19-1.3-1.44-1.15-6.39a4.42,4.42,0,0,0-.53-.71c-1-1.06-1.95-1-2.31-1.6-.26-.42-.24-1.21.89-2.84l-2.05-4.17,12.16.36c1.4-2.8,2.59-3.46,3.46-3.46C232.41,60.93,238.08,74.83,235.09,81Z"/><path class="cls-6" d="M246.8,58.39a6.21,6.21,0,0,0-.44-6.92,4.92,4.92,0,0,0-2.58-1.42c-2.25-.49-3.19.87-6.92,1.78a12.25,12.25,0,0,1-5.86.35c-2.06-.47-2.77-2.6-4.34-2.31a2.32,2.32,0,0,0-1.33.8c-1.34,1.7,1.16,4.28.08,5.95s-4.51.76-4.88,2.13c-.17.66.54,1.14.36,2.48-.11.77-.37.87-.27,1.25.26.91,1.92.71,3.2,1.68a4.61,4.61,0,0,1,1.59,3.11,8.61,8.61,0,0,1,2.13-4.79C232.65,57.14,243.65,63,246.8,58.39Z"/><path class="cls-2" d="M228.7,60.35c-.18-2.06.41-3.78,1.51-4.26a2.31,2.31,0,0,1,1-.18c1,.05,1.4.8,2.22,1.24a4,4,0,0,0,3.37,0c1.63-.73,1.46-2.23,3.37-3.1a2.5,2.5,0,0,1,1.87-.36c1.44.52,1,3.11,2.57,3.73.7.28,1-.15,2.13-.09A5.33,5.33,0,0,1,250.08,59a13.19,13.19,0,0,1-9.58,6.66A12.65,12.65,0,0,1,228.7,60.35Z"/><path class="cls-7" d="M234,62.83c.44-1.34,2.72-2,3.11-2.13.19-.06,2.7-.77,3.46.27.45.62-.08,1.37.35,1.77s1.85-.36,3-.62c3.08-.69,7.74,2.37,7.72,5.41,0,2.09-2.22,4-4.35,4.71C241.17,74.14,233,65.92,234,62.83Z"/><path class="cls-6" d="M236.15,64.78c.29-.29,1.19.38,3.37.36.52,0,1.06,0,1.12,0,1-.09,1.63-.26,2.08-.31,1.48-.16,3.75.61,7.1,5-.31.35-3.08,3.38-6.84,2.93C237.85,72.06,235.46,65.48,236.15,64.78Z"/><path class="cls-8" d="M239.08,67.09a2,2,0,0,1,2.31-.36c.84.42.64,1.23,1.59,1.87.74.49,1.16.22,2.22.62a5.36,5.36,0,0,1,2.13,1.51,5.56,5.56,0,0,1-5.68.89C239.67,70.64,238.42,68.07,239.08,67.09Z"/><path class="cls-8" d="M241.47,62.83a10.68,10.68,0,0,0,3.2-1.33c2.26-1.42,2.61-2.89,4.61-3.46a4.92,4.92,0,0,1,3,.09c1.43.55,1.45,1.5,2.84,2.75,2.48,2.23,4.9,1.43,5.5,3.1.45,1.24-.79,1.92-.26,3.2s1.76.94,3.55,2.66c.75.73,1.77,1.71,1.59,2.84a2.88,2.88,0,0,1-1.68,1.86c-4.53,1.13-9-.31-11.27-3.55a9.35,9.35,0,0,1-1.51-6.12,6.08,6.08,0,0,1-3.46-.53c-.91-.46-1.16-.92-1.95-1.33A5.6,5.6,0,0,0,241.47,62.83Z"/><path class="cls-9" d="M254,69a7.49,7.49,0,0,0,3.19,1.25c1.18.06,1.9-.34,2.4.08s.4,1.5.17,2.4a10.16,10.16,0,0,0,1.78.89,10.28,10.28,0,0,0,4.35.62.83.83,0,0,1,.35.18c.75.6.3,2.29.18,2.75-.7,2.59-7.45,6.85-13.67,4.7-4.85-1.68-6.86-6.41-7.27-7.45C250.34,69.09,252.71,68.43,254,69Z"/><path class="cls-4" d="M247.51,63l-.09,1.77a.52.52,0,0,0-.09.45c.18.35,1.11,0,1.95.26a3.36,3.36,0,0,1,1.5,1.49h0v0a4.82,4.82,0,0,1-1,2.66c-1.51,2-4.83,2.9-5.59,3.11.77,1.55,1.5,2,2,2a4.87,4.87,0,0,1,1.95.27c.3.13.39.24.62.26.62.07,1.19-.52,1.6-1.06.3,0,.77,0,1.33-.09.81-.08,3.58-.35,3.64-1,0-.34-.79-.34-1-1-.26-.87,1-1.65.71-2.58-.11-.31-.31-.4-.35-.8s.24-.67.17-1c-.13-.58-1.33-.37-2-1.07s-.17-1.71-.62-2.57S250.76,62.84,247.51,63Z"/><path class="cls-9" d="M232.78,68.07c-.34.1-.11.86-.62,1.33-.8.72-2.08-.4-3.11.26-.65.42-.42,1.06-1.42,2.49a8.24,8.24,0,0,1-1,1.15.73.73,0,0,0,0,.44c.11.37.49.46.71.63.73.57-.3,2.28.26,3.72A2.84,2.84,0,0,0,229,79.51a5.33,5.33,0,0,0,.45,1.24c1.85,3.68,8.33,5.6,12,3.47,1.61-1,1.93-2.25,3.46-2.31,1.32,0,1.92.89,3.81,1.68a10.68,10.68,0,0,0,4.35.8,4.94,4.94,0,0,1-1.24-2A5.12,5.12,0,0,1,251.5,81a17.15,17.15,0,0,1-4.08-2.75c-3.09-2.81-2.53-4.41-4.79-5.77-3.09-1.85-5.79.15-7.9-2.13C233.85,69.42,233.26,67.92,232.78,68.07Z"/><path class="cls-10" d="M232,66.38a6.43,6.43,0,0,0,2.13,2.48c1.67,1.1,2.94.59,5.15,1.07a12.73,12.73,0,0,1,5.5,3c3.15,2.56,2.88,4.3,5,5.85,1.56,1.17,4.33,2.13,9.58.8a9.74,9.74,0,0,1-5.86,2.31,10.91,10.91,0,0,1-7.27-3c-2.73-2.33-2.08-3.7-4.62-5.32-2.37-1.53-3.42-.63-5.76-2.22A10.28,10.28,0,0,1,232,66.38Z"/><path class="cls-4" d="M251.5,81.64c.39,3.74,2.84,6.68,5.86,7.28,2.19.43,5.13-.28,6.57-2.13.83-1.08.88-2.18,2-2.66s2.07.26,2.92-.36a2.91,2.91,0,0,0,.8-2.39c-.08-2.86-3.23-4.66-3.64-4.88a2.13,2.13,0,0,1-.79,1.5,2.24,2.24,0,0,1-2.58,0,3.1,3.1,0,0,1-1.15,1.25,3.19,3.19,0,0,1-2.31.35,13.45,13.45,0,0,1-4.88,1.86A12.64,12.64,0,0,1,251.5,81.64Z"/><path class="cls-9" d="M227.28,63.1a2.38,2.38,0,0,1,1.15-3.29,2.12,2.12,0,0,1,1.6.27c.19.31.46.73.8,1.24,1,1.57,1.21,1.7,1.42,1.78.83.3,1.37-.55,2.13-.18.52.25.38.72,1.06,1.15s.81.12,1.33.45c.78.48.55,1.21,1.24,1.68s1.19,0,2,.27c1.22.46,1.12,2.18,1.86,3.1s2.77,1.51,8.16-.17c.57.1.74.29.8.44.16.37-.23.8-1.86,2.66-.91,1-1,1.15-1.24,1.24-.92.37-1.81-.22-3.29-1a33.6,33.6,0,0,0-5.05-2c-2.88-.83-2.92.27-4.35-.53s-3.46-3.13-3.46-5.42c0-.4.05-1.19-.36-1.42s-.73.21-1.51.36A2.59,2.59,0,0,1,227.28,63.1Z"/></g><path class="cls-11" d="M50.32,23.06a9.47,9.47,0,1,1,9.47-9.47A9.48,9.48,0,0,1,50.32,23.06Zm0-16.4a6.93,6.93,0,1,0,6.93,6.93A6.94,6.94,0,0,0,50.32,6.66Z"/><path class="cls-11" d="M55.45,27.67a9.47,9.47,0,1,1,9.47-9.47A9.48,9.48,0,0,1,55.45,27.67Zm0-16.4a6.93,6.93,0,1,0,6.93,6.93A6.94,6.94,0,0,0,55.45,11.27Z"/><path class="cls-1" d="M48.43,11c-.8-.91-1.59-1.8-2.38-2.66-.33.42-.61.88-.89,1.3.7.77,1.4,1.56,2.12,2.38A128.19,128.19,0,0,0,59.8,22.17l.29-.22C55.33,18.78,51.73,14.72,48.43,11Z"/><path class="cls-11" d="M60,42.66q0,3.57-2.3,12.31T55.38,66.4c0,1.79.25,2.68.76,2.68a19.58,19.58,0,0,0,3.92-1.62l1-.51,1.45,3c-.52.46-1.2,1-2,1.71a30.44,30.44,0,0,1-4.77,2.77,14.69,14.69,0,0,1-6.48,1.75,6.11,6.11,0,0,1-4.69-1.84,7,7,0,0,1-1.7-4.94q0-3.1,2.13-11.08t2.13-10.36a11.46,11.46,0,0,0-2.22-6.73l-.77-1,.09-1.1q4.51-1.29,14.66-1.28Q60,39.08,60,42.66Z"/><path class="cls-11" d="M143.54,69.93q-7.24,6.22-12.74,6.23c-3.67,0-5.78-1.82-6.35-5.46a19.71,19.71,0,0,1-5.71,4,13.74,13.74,0,0,1-5.54,1.45,8.74,8.74,0,0,1-7-3.58q-2.91-3.58-2.9-11.09,0-11.25,4.77-17.68t10.79-6.44A17.82,17.82,0,0,1,129,40.1q2.64-13.82,2.64-21.74l-.43-3.58a38.29,38.29,0,0,1,12.53-2.21,7.61,7.61,0,0,1,.68,3.32q0,6.22-3.75,25.27T136.89,67c0,1.36.32,2,.94,2a12.45,12.45,0,0,0,3.24-1.62l.85-.51ZM123,42.4q-3,0-5.16,5.88a33.37,33.37,0,0,0-2.17,11.64q0,5.74.81,7.37a2.59,2.59,0,0,0,2.43,1.62,8.61,8.61,0,0,0,5.54-2.3q.26-3.4,3.83-22.67A11.37,11.37,0,0,0,123,42.4Z"/><path class="cls-11" d="M170.65,76.16A11.17,11.17,0,0,1,161.44,72q-3.31-4.12-3.32-11.55a26.52,26.52,0,0,1,5.07-16.28q5.07-6.82,14-6.82l3.07.17a6.85,6.85,0,0,1,3.24-.76q6.73,0,6.73,12.7a45,45,0,0,0,7.08-.94l1.36-.34.51,3.32a38.74,38.74,0,0,1-7.58,2.13l-1.71.34a36.39,36.39,0,0,1-6.56,15.56Q178.4,76.15,170.65,76.16Zm4.6-7.33c2.39,0,4.53-1.54,6.44-4.61a30.76,30.76,0,0,0,4-9.72q-9.12,0-9.12-6.81a12,12,0,0,1,1.11-5.12l.42-.85a1.92,1.92,0,0,0-.85-.17,1.4,1.4,0,0,0-.76.17c-1.43.91-2.76,3-4,6.39a32.84,32.84,0,0,0-1.88,11.51Q170.56,68.83,175.25,68.83Z"/></g></g></g></svg>